<?xml version="1.0" encoding="UTF-8" standalone="no"?>
<svg
   xmlns:dc="http://purl.org/dc/elements/1.1/"
   xmlns:cc="http://creativecommons.org/ns#"
   xmlns:rdf="http://www.w3.org/1999/02/22-rdf-syntax-ns#"
   xmlns:svg="http://www.w3.org/2000/svg"
   xmlns="http://www.w3.org/2000/svg"
   width="1200"
   height="1200"
   viewBox="0 0 317.5 317.50001"
   version="1.1"
   id="svg8">
  <defs
     id="defs2" />
  <metadata
     id="metadata5">
    <rdf:RDF>
      <cc:Work
         rdf:about="">
        <dc:format>image/svg+xml</dc:format>
        <dc:type
           rdf:resource="http://purl.org/dc/dcmitype/StillImage" />
        <dc:title></dc:title>
      </cc:Work>
    </rdf:RDF>
  </metadata>
  <g
     id="layer2">
    <path
       style="fill:none;stroke:#000000;stroke-width:0.264583px;stroke-linecap:butt;stroke-linejoin:miter;stroke-opacity:1"
       d="m 172.77021,61.631478 c 99.01451,-6.062113 87.90062,6.567278 89.92133,38.393372 l -0.50518,49.50725 -1.8607,135.88765 c 0,0 11.83485,-8.12363 22.57293,-2.52116"
       id="path882" />
  </g>
  <g
     id="layer1">
    <path
       style="fill:none;stroke:#000000;stroke-width:0.264583px;stroke-linecap:butt;stroke-linejoin:miter;stroke-opacity:1"
       d="m -4.5357143,279.70237 c 20.4107143,0 26.4583333,-30.23809 26.4583333,-56.69642 0,-26.45833 -8.122144,-128.562978 13.607142,-147.410713 C 64.524812,50.445261 130.98818,49.011932 167.06548,54.42857 c 42.09044,6.319451 15.11904,108.10119 15.11904,108.10119 l -65.76786,35.52976 65.76786,39.30952 -0.75595,29.48214 c 1.22641,19.65476 20.12379,12.85118 142.875,12.09525"
       id="path865" />
    <path
       style="fill:none;stroke:#000000;stroke-width:0.264583px;stroke-linecap:butt;stroke-linejoin:miter;stroke-opacity:1"
       d="m -4.5357142,279.70236 c -21.1666668,106.5893 61.2321412,106.5893 61.2321412,106.5893 l 269.119053,-3.77976 37.79761,-60.47618 -39.30952,-43.0893"
       id="path869" />
    <path
       style="fill:#9ccc00;fill-rule:evenodd;stroke-width:0.755952;fill-opacity:1"
       d="M 49.770896,382.54959 C 35.260501,379.43807 25.077134,373.70344 14.358999,362.60784 2.6954372,350.5335 -3.1457698,333.24806 -3.1457698,310.80727 c 0,-10.29997 1.758404,-27.52889 3.05733803,-29.95597 0.411475,-0.76885 2.02325097,-1.74127 3.58172497,-2.1609 10.6525198,-2.86843 17.2629578,-13.34035 21.0955458,-33.41846 1.228853,-6.43771 1.327549,-11.62823 1.104667,-58.09609 -0.259718,-54.14791 0.293631,-69.79153 2.956826,-83.59189 3.182727,-16.492512 6.096152,-23.171742 12.723245,-29.168922 10.408348,-9.41901 30.068978,-16.77886 55.266369,-20.68866 10.637274,-1.65055 47.371124,-2.36032 61.399404,-1.18637 18.07811,1.51288 23.94431,4.55633 29.32414,15.21371 4.57788,9.06871 5.51376,14.43475 5.53432,31.73166 0.0196,16.448832 -0.99782,26.597692 -4.50893,44.979162 -3.03155,15.8709 -2.4636,14.71196 -9.14961,18.67033 -3.22858,1.91145 -17.25862,9.67639 -31.17787,17.25542 -30.17511,16.43036 -29.14392,15.80017 -27.84328,17.01601 0.54466,0.50914 14.08715,8.8296 30.09445,18.4899 16.00729,9.66029 30.18158,18.2163 31.49841,19.01333 l 2.39425,1.44916 0.25449,16.79697 c 0.30111,19.87387 0.4631,20.40558 7.22874,23.72782 l 4.35923,2.14058 h 40.82142 c 22.45179,0 52.04252,-0.12046 65.75717,-0.2677 l 24.93574,-0.26771 10.52562,11.60698 c 19.85444,21.89422 27.02589,30.38092 26.69532,31.59128 -0.24762,0.90665 -34.75556,57.11436 -35.66596,58.09393 -0.39479,0.42478 -239.225295,3.97883 -260.904429,3.88252 -8.486092,-0.0377 -15.359319,-0.45278 -18.441675,-1.11377 z M 157.77978,97.220148 c 1.12075,-1.9941 2.38878,-3.17203 3.72998,-3.46492 3.46577,-0.75687 3.92185,-0.99427 3.92185,-2.04147 0,-0.55852 -1.04824,-1.79048 -2.32942,-2.7377 -2.212,-1.6354 -2.30369,-1.90932 -1.81894,-5.43383 0.57101,-4.15172 0.17388,-4.43158 -3.5534,-2.50413 -2.19933,1.13732 -3.57295,1.11263 -7.98425,-0.14353 -1.59979,-0.45555 -1.70089,-0.26225 -1.70089,3.25182 0,3.00781 -0.36842,4.08227 -1.88988,5.5116 -3.15181,2.96098 -2.66073,3.73853 3.0884,4.89 1.69009,0.3385 2.67562,1.18681 3.57854,3.08025 1.62234,3.402082 2.8745,3.299022 4.95801,-0.40809 z"
       id="path873" />
    <path
       style="fill:#005a00;fill-opacity:1;fill-rule:evenodd;stroke-width:1.90933"
       d="m 726.71048,1046.5432 c -15.74032,-8.0488 -21.39363,-13.6753 -24.66356,-24.5466 -1.15652,-3.8449 -2.75338,-34.0212 -3.58128,-67.67589 -0.82178,-33.4053 -2.25828,-61.45684 -3.19223,-62.33675 -0.93394,-0.87992 -44.22835,-27.30804 -96.20977,-58.72914 C 458.50399,748.291 452.85131,744.68741 456.25018,742.21145 c 1.58319,-1.15331 54.64455,-30.02082 117.91414,-64.15004 76.35558,-41.18813 115.53703,-63.33712 116.52684,-65.87177 0.82019,-2.10026 3.27276,-5.42329 5.45016,-7.38453 6.56783,-5.91578 11.8921,-27.61236 23.02069,-93.80979 9.20399,-54.74924 12.58856,-113.5837 9.71156,-168.81841 -2.44781,-46.99537 -7.90753,-67.10367 -26.79301,-98.67921 l -6.96661,-11.64782 28.65149,-1.24014 c 43.75056,-1.89366 125.67338,-1.46618 150.24126,0.78398 52.16628,4.77789 84.73865,16.07822 99.24602,34.43142 9.13228,11.5532 12.94196,23.36959 15.33194,47.55485 2.77868,28.11851 2.17516,171.62586 -1.93114,459.1931 -2.06934,144.91791 -3.7743,267.56831 -3.78881,272.55641 l -0.0264,9.0693 -120.76492,-0.095 -120.76493,-0.095 -14.598,-7.4647 z"
       id="path902"
       transform="scale(0.26458333)" />
  </g>
</svg>
